<svg width="24" height="26" viewBox="0 0 24 26" fill="none" xmlns="http://www.w3.org/2000/svg">
<path d="M19.5 25.5C18.4583 25.5 17.5729 25.1354 16.8438 24.4062C16.1146 23.6771 15.75 22.7917 15.75 21.75C15.75 21.6042 15.7604 21.4531 15.7812 21.2969C15.8021 21.1406 15.8333 21 15.875 20.875L7.0625 15.75C6.70833 16.0625 6.3125 16.3073 5.875 16.4844C5.4375 16.6615 4.97917 16.75 4.5 16.75C3.45833 16.75 2.57292 16.3854 1.84375 15.6562C1.11458 14.9271 0.75 14.0417 0.75 13C0.75 11.9583 1.11458 11.0729 1.84375 10.3438C2.57292 9.61458 3.45833 9.25 4.5 9.25C4.97917 9.25 5.4375 9.33854 5.875 9.51562C6.3125 9.69271 6.70833 9.9375 7.0625 10.25L15.875 5.125C15.8333 5 15.8021 4.85938 15.7812 4.70312C15.7604 4.54688 15.75 4.39583 15.75 4.25C15.75 3.20833 16.1146 2.32292 16.8438 1.59375C17.5729 0.864583 18.4583 0.5 19.5 0.5C20.5417 0.5 21.4271 0.864583 22.1562 1.59375C22.8854 2.32292 23.25 3.20833 23.25 4.25C23.25 5.29167 22.8854 6.17708 22.1562 6.90625C21.4271 7.63542 20.5417 8 19.5 8C19.0208 8 18.5625 7.91146 18.125 7.73438C17.6875 7.55729 17.2917 7.3125 16.9375 7L8.125 12.125C8.16667 12.25 8.19792 12.3906 8.21875 12.5469C8.23958 12.7031 8.25 12.8542 8.25 13C8.25 13.1458 8.23958 13.2969 8.21875 13.4531C8.19792 13.6094 8.16667 13.75 8.125 13.875L16.9375 19C17.2917 18.6875 17.6875 18.4427 18.125 18.2656C18.5625 18.0885 19.0208 18 19.5 18C20.5417 18 21.4271 18.3646 22.1562 19.0938C22.8854 19.8229 23.25 20.7083 23.25 21.75C23.25 22.7917 22.8854 23.6771 22.1562 24.4062C21.4271 25.1354 20.5417 25.5 19.5 25.5ZM19.5 5.5C19.8542 5.5 20.151 5.38021 20.3906 5.14062C20.6302 4.90104 20.75 4.60417 20.75 4.25C20.75 3.89583 20.6302 3.59896 20.3906 3.35938C20.151 3.11979 19.8542 3 19.5 3C19.1458 3 18.849 3.11979 18.6094 3.35938C18.3698 3.59896 18.25 3.89583 18.25 4.25C18.25 4.60417 18.3698 4.90104 18.6094 5.14062C18.849 5.38021 19.1458 5.5 19.5 5.5ZM4.5 14.25C4.85417 14.25 5.15104 14.1302 5.39062 13.8906C5.63021 13.651 5.75 13.3542 5.75 13C5.75 12.6458 5.63021 12.349 5.39062 12.1094C5.15104 11.8698 4.85417 11.75 4.5 11.75C4.14583 11.75 3.84896 11.8698 3.60938 12.1094C3.36979 12.349 3.25 12.6458 3.25 13C3.25 13.3542 3.36979 13.651 3.60938 13.8906C3.84896 14.1302 4.14583 14.25 4.5 14.25ZM19.5 23C19.8542 23 20.151 22.8802 20.3906 22.6406C20.6302 22.401 20.75 22.1042 20.75 21.75C20.75 21.3958 20.6302 21.099 20.3906 20.8594C20.151 20.6198 19.8542 20.5 19.5 20.5C19.1458 20.5 18.849 20.6198 18.6094 20.8594C18.3698 21.099 18.25 21.3958 18.25 21.75C18.25 22.1042 18.3698 22.401 18.6094 22.6406C18.849 22.8802 19.1458 23 19.5 23Z" fill="white"/>
</svg>
