<svg width="33" height="24" viewBox="0 0 33 24" fill="none" xmlns="http://www.w3.org/2000/svg">
<path d="M16.1146 23.3333C12.8576 23.3333 10.0868 22.2031 7.80208 19.9427C5.51736 17.6823 4.375 14.9236 4.375 11.6667V11.4115L2.04167 13.7448L0 11.7031L5.83333 5.86979L11.6667 11.7031L9.625 13.7448L7.29167 11.4115V11.6667C7.29167 14.0972 8.14844 16.1632 9.86198 17.8646C11.5755 19.566 13.6597 20.4167 16.1146 20.4167C16.7465 20.4167 17.3663 20.3438 17.974 20.1979C18.5816 20.0521 19.1771 19.8333 19.7604 19.5417L21.9479 21.7292C21.0243 22.2639 20.0764 22.6649 19.1042 22.9323C18.1319 23.1997 17.1354 23.3333 16.1146 23.3333ZM26.25 17.4635L20.4167 11.6302L22.4583 9.58854L24.7917 11.9219V11.6667C24.7917 9.23611 23.9349 7.17014 22.2214 5.46875C20.5078 3.76736 18.4236 2.91667 15.9687 2.91667C15.3368 2.91667 14.717 2.98958 14.1094 3.13542C13.5017 3.28125 12.9062 3.5 12.3229 3.79167L10.1354 1.60417C11.059 1.06944 12.0069 0.668403 12.9792 0.401042C13.9514 0.133681 14.9479 0 15.9687 0C19.2257 0 21.9965 1.13021 24.2812 3.39063C26.566 5.65104 27.7083 8.40972 27.7083 11.6667V11.9219L30.0417 9.58854L32.0833 11.6302L26.25 17.4635Z" fill="white"/>
</svg>
